<mxfile host="Electron" modified="2024-11-21T10:40:02.228Z" agent="Mozilla/5.0 (Windows NT 10.0; Win64; x64) AppleWebKit/537.36 (KHTML, like Gecko) draw.io/23.1.5 Chrome/120.0.6099.109 Electron/28.1.0 Safari/537.36" etag="2HLmWSBwShXEQK3P4JeJ" version="23.1.5" type="device">
  <diagram name="Page-1" id="c37626ed-c26b-45fb-9056-f9ebc6bb27b6">
    <mxGraphModel dx="794" dy="511" grid="1" gridSize="10" guides="1" tooltips="1" connect="1" arrows="1" fold="1" page="1" pageScale="1" pageWidth="1100" pageHeight="850" background="none" math="0" shadow="0">
      <root>
        <mxCell id="0" />
        <mxCell id="1" parent="0" />
        <mxCell id="IICo7kpRoqjDsJMHqljU-40" style="edgeStyle=orthogonalEdgeStyle;rounded=0;orthogonalLoop=1;jettySize=auto;html=1;exitX=1;exitY=0.3333333333333333;exitDx=0;exitDy=0;exitPerimeter=0;curved=1;" parent="1" source="IICo7kpRoqjDsJMHqljU-1" target="IICo7kpRoqjDsJMHqljU-39" edge="1">
          <mxGeometry relative="1" as="geometry">
            <Array as="points">
              <mxPoint x="610" y="280" />
              <mxPoint x="610" y="160" />
              <mxPoint x="55" y="160" />
            </Array>
          </mxGeometry>
        </mxCell>
        <mxCell id="IICo7kpRoqjDsJMHqljU-1" value="Actor" style="shape=umlActor;verticalLabelPosition=bottom;verticalAlign=top;html=1;outlineConnect=0;" parent="1" vertex="1">
          <mxGeometry x="560" y="260" width="30" height="60" as="geometry" />
        </mxCell>
        <mxCell id="IICo7kpRoqjDsJMHqljU-2" value="Actor" style="shape=umlActor;verticalLabelPosition=bottom;verticalAlign=top;html=1;outlineConnect=0;" parent="1" vertex="1">
          <mxGeometry x="180" y="250" width="30" height="60" as="geometry" />
        </mxCell>
        <mxCell id="IICo7kpRoqjDsJMHqljU-27" style="edgeStyle=orthogonalEdgeStyle;rounded=0;orthogonalLoop=1;jettySize=auto;html=1;exitX=0;exitY=1;exitDx=0;exitDy=0;exitPerimeter=0;curved=1;" parent="1" source="IICo7kpRoqjDsJMHqljU-7" target="IICo7kpRoqjDsJMHqljU-24" edge="1">
          <mxGeometry relative="1" as="geometry">
            <Array as="points">
              <mxPoint x="140" y="440" />
            </Array>
          </mxGeometry>
        </mxCell>
        <mxCell id="IICo7kpRoqjDsJMHqljU-7" value="Actor" style="shape=umlActor;verticalLabelPosition=bottom;verticalAlign=top;html=1;outlineConnect=0;" parent="1" vertex="1">
          <mxGeometry x="190" y="380" width="30" height="60" as="geometry" />
        </mxCell>
        <mxCell id="IICo7kpRoqjDsJMHqljU-11" style="edgeStyle=orthogonalEdgeStyle;rounded=0;orthogonalLoop=1;jettySize=auto;html=1;exitX=0.5;exitY=0;exitDx=0;exitDy=0;exitPerimeter=0;entryX=0.5;entryY=0;entryDx=0;entryDy=0;entryPerimeter=0;curved=1;" parent="1" source="IICo7kpRoqjDsJMHqljU-2" target="IICo7kpRoqjDsJMHqljU-1" edge="1">
          <mxGeometry relative="1" as="geometry" />
        </mxCell>
        <mxCell id="IICo7kpRoqjDsJMHqljU-12" style="edgeStyle=orthogonalEdgeStyle;rounded=0;orthogonalLoop=1;jettySize=auto;html=1;exitX=0;exitY=1;exitDx=0;exitDy=0;exitPerimeter=0;entryX=1;entryY=1;entryDx=0;entryDy=0;entryPerimeter=0;curved=1;" parent="1" source="IICo7kpRoqjDsJMHqljU-1" target="IICo7kpRoqjDsJMHqljU-7" edge="1">
          <mxGeometry relative="1" as="geometry">
            <Array as="points">
              <mxPoint x="560" y="460" />
              <mxPoint x="220" y="460" />
            </Array>
          </mxGeometry>
        </mxCell>
        <mxCell id="IICo7kpRoqjDsJMHqljU-19" value="חקלאי של חיטה" style="text;html=1;align=center;verticalAlign=middle;resizable=0;points=[];autosize=1;strokeColor=none;fillColor=none;" parent="1" vertex="1">
          <mxGeometry x="90" y="275" width="100" height="30" as="geometry" />
        </mxCell>
        <mxCell id="IICo7kpRoqjDsJMHqljU-22" value="יצרן של קמח" style="text;html=1;align=center;verticalAlign=middle;resizable=0;points=[];autosize=1;strokeColor=none;fillColor=none;" parent="1" vertex="1">
          <mxGeometry x="595" y="265" width="80" height="30" as="geometry" />
        </mxCell>
        <mxCell id="IICo7kpRoqjDsJMHqljU-23" value="מאפיית אנג&#39;ל" style="text;html=1;align=center;verticalAlign=middle;resizable=0;points=[];autosize=1;strokeColor=none;fillColor=none;" parent="1" vertex="1">
          <mxGeometry x="210" y="395" width="80" height="30" as="geometry" />
        </mxCell>
        <mxCell id="IICo7kpRoqjDsJMHqljU-48" style="edgeStyle=orthogonalEdgeStyle;rounded=0;orthogonalLoop=1;jettySize=auto;html=1;exitX=0;exitY=0.3333333333333333;exitDx=0;exitDy=0;exitPerimeter=0;curved=1;" parent="1" source="IICo7kpRoqjDsJMHqljU-24" edge="1">
          <mxGeometry relative="1" as="geometry">
            <mxPoint x="60" y="510" as="targetPoint" />
          </mxGeometry>
        </mxCell>
        <mxCell id="IICo7kpRoqjDsJMHqljU-24" value="Actor" style="shape=umlActor;verticalLabelPosition=bottom;verticalAlign=top;html=1;outlineConnect=0;" parent="1" vertex="1">
          <mxGeometry x="125" y="640" width="30" height="60" as="geometry" />
        </mxCell>
        <mxCell id="IICo7kpRoqjDsJMHqljU-28" value="שופרסל" style="text;html=1;align=center;verticalAlign=middle;resizable=0;points=[];autosize=1;strokeColor=none;fillColor=none;" parent="1" vertex="1">
          <mxGeometry x="140" y="658" width="60" height="30" as="geometry" />
        </mxCell>
        <mxCell id="IICo7kpRoqjDsJMHqljU-29" value="Actor" style="shape=umlActor;verticalLabelPosition=bottom;verticalAlign=top;html=1;outlineConnect=0;" parent="1" vertex="1">
          <mxGeometry x="660" y="490" width="15" height="40" as="geometry" />
        </mxCell>
        <mxCell id="IICo7kpRoqjDsJMHqljU-30" value="" style="shape=cylinder3;whiteSpace=wrap;html=1;boundedLbl=1;backgroundOutline=1;size=15;" parent="1" vertex="1">
          <mxGeometry x="20" y="425" width="60" height="80" as="geometry" />
        </mxCell>
        <mxCell id="IICo7kpRoqjDsJMHqljU-31" value="הצרכן הקטן" style="text;html=1;align=center;verticalAlign=middle;resizable=0;points=[];autosize=1;strokeColor=none;fillColor=none;" parent="1" vertex="1">
          <mxGeometry x="630" y="440" width="80" height="30" as="geometry" />
        </mxCell>
        <mxCell id="IICo7kpRoqjDsJMHqljU-35" style="edgeStyle=orthogonalEdgeStyle;rounded=0;orthogonalLoop=1;jettySize=auto;html=1;exitX=0;exitY=0.3333333333333333;exitDx=0;exitDy=0;exitPerimeter=0;entryX=0.75;entryY=0.1;entryDx=0;entryDy=0;entryPerimeter=0;curved=1;dashed=1;dashPattern=8 8;" parent="1" source="IICo7kpRoqjDsJMHqljU-1" target="IICo7kpRoqjDsJMHqljU-7" edge="1">
          <mxGeometry relative="1" as="geometry" />
        </mxCell>
        <mxCell id="IICo7kpRoqjDsJMHqljU-36" style="edgeStyle=orthogonalEdgeStyle;rounded=0;orthogonalLoop=1;jettySize=auto;html=1;exitX=1;exitY=1;exitDx=0;exitDy=0;exitPerimeter=0;entryX=1;entryY=1;entryDx=0;entryDy=0;entryPerimeter=0;curved=1;dashed=1;dashPattern=8 8;" parent="1" source="IICo7kpRoqjDsJMHqljU-7" target="IICo7kpRoqjDsJMHqljU-24" edge="1">
          <mxGeometry relative="1" as="geometry" />
        </mxCell>
        <mxCell id="IICo7kpRoqjDsJMHqljU-38" style="edgeStyle=orthogonalEdgeStyle;rounded=0;orthogonalLoop=1;jettySize=auto;html=1;exitX=0;exitY=1;exitDx=0;exitDy=0;exitPerimeter=0;entryX=1;entryY=1;entryDx=0;entryDy=0;entryPerimeter=0;curved=1;" parent="1" source="IICo7kpRoqjDsJMHqljU-24" target="IICo7kpRoqjDsJMHqljU-29" edge="1">
          <mxGeometry relative="1" as="geometry">
            <Array as="points">
              <mxPoint x="125" y="810" />
              <mxPoint x="675" y="810" />
            </Array>
          </mxGeometry>
        </mxCell>
        <mxCell id="IICo7kpRoqjDsJMHqljU-39" value="בזבוז" style="text;html=1;align=center;verticalAlign=middle;resizable=0;points=[];autosize=1;strokeColor=none;fillColor=none;" parent="1" vertex="1">
          <mxGeometry x="30" y="388" width="50" height="30" as="geometry" />
        </mxCell>
        <mxCell id="IICo7kpRoqjDsJMHqljU-41" value="" style="rounded=1;whiteSpace=wrap;html=1;" parent="1" vertex="1">
          <mxGeometry x="560" y="320" width="50" height="20" as="geometry" />
        </mxCell>
        <mxCell id="IICo7kpRoqjDsJMHqljU-42" value="" style="rounded=1;whiteSpace=wrap;html=1;" parent="1" vertex="1">
          <mxGeometry x="170" y="450" width="50" height="20" as="geometry" />
        </mxCell>
        <mxCell id="IICo7kpRoqjDsJMHqljU-43" value="" style="rounded=1;whiteSpace=wrap;html=1;" parent="1" vertex="1">
          <mxGeometry x="170" y="320" width="50" height="20" as="geometry" />
        </mxCell>
        <mxCell id="IICo7kpRoqjDsJMHqljU-44" value="" style="rounded=1;whiteSpace=wrap;html=1;" parent="1" vertex="1">
          <mxGeometry x="630" y="540" width="50" height="20" as="geometry" />
        </mxCell>
        <mxCell id="IICo7kpRoqjDsJMHqljU-45" value="" style="rounded=1;whiteSpace=wrap;html=1;" parent="1" vertex="1">
          <mxGeometry x="100" y="700" width="50" height="20" as="geometry" />
        </mxCell>
      </root>
    </mxGraphModel>
  </diagram>
</mxfile>
